<svg viewBox="0 0 24 24" fill="none" xmlns="http://www.w3.org/2000/svg">
  <circle cx="12" cy="12" r="10" fill="url(#grad)" />
  <path d="M7 10C7 8.89543 7.89543 8 9 8H15C16.1046 8 17 8.89543 17 10V14C17 15.1046 16.1046 16 15 16H9C7.89543 16 7 15.1046 7 14V10Z" fill="white" fill-opacity="0.2" />
  <rect x="9" y="10" width="2" height="2" rx="1" fill="white" />
  <rect x="13" y="10" width="2" height="2" rx="1" fill="white" />
  <path d="M10 13.5C10 13.5 11 14.5 12 14.5C13 14.5 14 13.5 14 13.5" stroke="white" stroke-width="1.5" stroke-linecap="round" />
  <path d="M12 8V6M12 6C12 5.44772 11.5523 5 11 5C10.4477 5 10 5.44772 10 6C10 6.55228 10.4477 7 11 7C11.5523 7 12 6.55228 12 6Z" stroke="white" stroke-width="1.5" />
  <defs>
    <linearGradient id="grad" x1="2" y1="2" x2="22" y2="22" gradientUnits="userSpaceOnUse">
      <stop stop-color="#10B981" />
      <stop offset="1" stop-color="#3B82F6" />
    </linearGradient>
  </defs>
</svg>
